<svg width="140" height="140" viewBox="0 0 140 140" fill="none" xmlns="http://www.w3.org/2000/svg">
<circle cx="70" cy="70" r="70" fill="#292D32"/>
<g filter="url(#filter0_d_380_6616)">
<path fill-rule="evenodd" clip-rule="evenodd" d="M70 123.321C99.823 123.321 124 99.2152 124 69.4799C124 39.7445 99.823 15.6386 70 15.6386C40.177 15.6386 16 39.7445 16 69.4799C16 99.2152 40.177 123.321 70 123.321ZM70 129.303C103.138 129.303 130 102.52 130 69.4799C130 36.4393 103.138 9.65625 70 9.65625C36.862 9.65625 10 36.4393 10 69.4799C10 102.52 36.862 129.303 70 129.303Z" fill="white"/>
<path d="M34 104.267C34 101.177 36.316 98.5653 39.4 98.2243C62.545 95.6699 77.56 95.9002 100.654 98.2812C101.807 98.4019 102.9 98.8549 103.799 99.5848C104.699 100.315 105.365 101.29 105.718 102.391C106.07 103.493 106.094 104.673 105.785 105.787C105.476 106.902 104.848 107.902 103.978 108.667C76.723 132.354 61.147 132.028 35.92 108.69C34.69 107.554 34 105.939 34 104.27V104.267Z" fill="white"/>
<path fill-rule="evenodd" clip-rule="evenodd" d="M100.345 101.257C77.434 98.8938 62.635 98.6724 39.727 101.2C38.9729 101.288 38.2778 101.649 37.7746 102.216C37.2715 102.783 36.9957 103.515 37 104.272C37 105.127 37.357 105.938 37.96 106.5C50.464 118.064 59.938 123.29 69.199 123.323C78.493 123.356 88.477 118.172 102.007 106.417C102.437 106.035 102.746 105.537 102.898 104.984C103.049 104.43 103.036 103.845 102.86 103.299C102.684 102.752 102.353 102.269 101.906 101.907C101.46 101.545 100.917 101.32 100.345 101.26V101.257ZM39.07 95.2535C62.458 92.6721 77.692 92.9054 100.966 95.3074C102.701 95.4879 104.345 96.1689 105.698 97.267C107.051 98.365 108.053 99.8325 108.582 101.49C109.111 103.147 109.144 104.922 108.677 106.598C108.21 108.274 107.263 109.777 105.952 110.924C92.227 122.853 80.797 129.35 69.181 129.305C57.532 129.263 46.606 122.656 33.883 110.885C32.9721 110.039 32.2459 109.015 31.7498 107.877C31.2538 106.738 30.9985 105.51 31 104.269C30.9956 102.039 31.8166 99.8855 33.3057 98.2214C34.7948 96.5573 36.8473 95.4995 39.07 95.2505V95.2535Z" fill="white"/>
<path d="M94 57.5154C94 63.8619 91.4714 69.9484 86.9706 74.4361C82.4697 78.9237 76.3652 81.4448 70 81.4448C63.6348 81.4448 57.5303 78.9237 53.0294 74.4361C48.5286 69.9484 46 63.8619 46 57.5154C46 51.1689 48.5286 45.0824 53.0294 40.5947C57.5303 36.1071 63.6348 33.5859 70 33.5859C76.3652 33.5859 82.4697 36.1071 86.9706 40.5947C91.4714 45.0824 94 51.1689 94 57.5154Z" fill="white"/>
<path fill-rule="evenodd" clip-rule="evenodd" d="M70 75.4625C74.7739 75.4625 79.3523 73.5716 82.7279 70.2059C86.1036 66.8402 88 62.2752 88 57.5154C88 52.7555 86.1036 48.1906 82.7279 44.8249C79.3523 41.4591 74.7739 39.5683 70 39.5683C65.2261 39.5683 60.6477 41.4591 57.2721 44.8249C53.8964 48.1906 52 52.7555 52 57.5154C52 62.2752 53.8964 66.8402 57.2721 70.2059C60.6477 73.5716 65.2261 75.4625 70 75.4625ZM70 81.4448C76.3652 81.4448 82.4697 78.9237 86.9706 74.4361C91.4714 69.9484 94 63.8619 94 57.5154C94 51.1689 91.4714 45.0824 86.9706 40.5947C82.4697 36.1071 76.3652 33.5859 70 33.5859C63.6348 33.5859 57.5303 36.1071 53.0294 40.5947C48.5286 45.0824 46 51.1689 46 57.5154C46 63.8619 48.5286 69.9484 53.0294 74.4361C57.5303 78.9237 63.6348 81.4448 70 81.4448Z" fill="white"/>
</g>
<circle cx="121" cy="124" r="12" fill="#0B9F57"/>
<circle cx="121" cy="124" r="12" stroke="#E9EAEC"/>
<path fill-rule="evenodd" clip-rule="evenodd" d="M121 120C121.276 120 121.5 120.224 121.5 120.5V127.5C121.5 127.776 121.276 128 121 128C120.724 128 120.5 127.776 120.5 127.5V120.5C120.5 120.224 120.724 120 121 120Z" fill="white"/>
<path fill-rule="evenodd" clip-rule="evenodd" d="M117 124C117 123.724 117.224 123.5 117.5 123.5H124.5C124.776 123.5 125 123.724 125 124C125 124.276 124.776 124.5 124.5 124.5H117.5C117.224 124.5 117 124.276 117 124Z" fill="white"/>
<defs>
<filter id="filter0_d_380_6616" x="5" y="9.65625" width="130" height="129.648" filterUnits="userSpaceOnUse" color-interpolation-filters="sRGB">
<feFlood flood-opacity="0" result="BackgroundImageFix"/>
<feColorMatrix in="SourceAlpha" type="matrix" values="0 0 0 0 0 0 0 0 0 0 0 0 0 0 0 0 0 0 127 0" result="hardAlpha"/>
<feOffset dy="5"/>
<feGaussianBlur stdDeviation="2.5"/>
<feComposite in2="hardAlpha" operator="out"/>
<feColorMatrix type="matrix" values="0 0 0 0 0 0 0 0 0 0 0 0 0 0 0 0 0 0 0.25 0"/>
<feBlend mode="normal" in2="BackgroundImageFix" result="effect1_dropShadow_380_6616"/>
<feBlend mode="normal" in="SourceGraphic" in2="effect1_dropShadow_380_6616" result="shape"/>
</filter>
</defs>
</svg>
