<svg width="596" height="140" viewBox="0 0 596 140" fill="none" xmlns="http://www.w3.org/2000/svg">
<path d="M150.36 68.9V31.27H158.64V68.9H150.36Z" fill="#0A9A9A"/>
<path d="M176.46 31.27L191.87 58.31L191.5 31.27H199.57V68.9H190.4L174.21 40.44L174.58 68.9H166.46V31.27H176.46Z" fill="#0A9A9A"/>
<path d="M203.35 37.8801V31.3301H235.84V37.8801H223.63V68.9101H215.45V37.8801H203.35Z" fill="#0A9A9A"/>
<path d="M248.68 40.16C247.25 41.68 246.44 43.84 246.27 46.63L268.18 46.58V53.13H246.22C246.22 54.46 246.37 55.73 246.67 56.96C246.96 58.19 247.57 59.3 248.47 60.31C249.28 61.26 250.23 61.84 251.33 62.07C252.43 62.3 253.55 62.41 254.71 62.41C254.78 62.41 254.86 62.41 254.94 62.41C255.03 62.41 255.11 62.41 255.18 62.41L268.18 62.36V68.91H254.81C252.68 68.91 250.63 68.72 248.65 68.33C246.67 67.95 244.82 67.05 243.07 65.66C240.98 63.95 239.51 61.86 238.67 59.4C237.83 56.94 237.38 54.41 237.31 51.83C237.27 51.27 237.27 50.73 237.28 50.21C237.3 49.69 237.32 49.16 237.36 48.63C237.75 42.69 239.36 38.32 242.21 35.53C245.06 32.73 249.33 31.34 255.02 31.34L268.18 31.29V37.84H255.18C252.28 37.86 250.11 38.64 248.68 40.16Z" fill="#0A9A9A"/>
<path d="M294.59 31.27C294.97 31.3 295.35 31.32 295.72 31.32C296.09 31.32 296.46 31.34 296.85 31.37C298.28 31.44 299.69 31.67 301.07 32.05C302.45 32.43 303.66 33.15 304.71 34.2C305.65 35.11 306.36 36.18 306.83 37.4C307.3 38.62 307.59 39.88 307.7 41.18C307.7 41.43 307.7 41.67 307.72 41.91C307.74 42.16 307.75 42.4 307.75 42.65C307.79 45.27 307.18 47.53 305.94 49.43C304.7 51.34 302.77 52.6 300.15 53.23L309.53 68.9H300.62L292.34 54.12H283.01V68.9H275.1V31.27H294.59ZM292.7 37.98H283.01V47.47H292.7C292.77 47.51 292.84 47.52 292.91 47.52C292.98 47.52 293.05 47.52 293.12 47.52C294.8 47.52 296.33 47.27 297.71 46.76C299.09 46.25 299.76 44.92 299.73 42.75C299.73 40.52 299.01 39.17 297.55 38.72C296.1 38.26 294.49 38.04 292.7 38.04V37.98Z" fill="#0A9A9A"/>
<path d="M324.41 31.27L339.82 58.31L339.45 31.27H347.52V68.9H338.35L322.16 40.45L322.52 68.91H314.4V31.27H324.41Z" fill="#0A9A9A"/>
<path d="M374.35 31.27L390.39 68.9H381.59L378.13 59.94H361.78L358.42 68.9H350.09L365.97 31.27H374.35ZM364.34 53.23H375.55L369.84 38.77L364.34 53.23Z" fill="#0A9A9A"/>
<path d="M389.13 37.8801V31.3301H421.62V37.8801H409.41V68.9101H401.24V37.8801H389.13Z" fill="#0A9A9A"/>
<path d="M425.5 68.9V31.27H433.78V68.9H425.5Z" fill="#0A9A9A"/>
<path d="M440.23 41.7601C441.14 39.0001 442.48 36.7501 444.24 35.0301C446 33.3001 448.31 32.0701 451.18 31.3301C452.23 31.0901 453.31 30.8901 454.43 30.7501C455.55 30.6101 456.67 30.5401 457.78 30.5401C458.97 30.5001 460.17 30.5501 461.4 30.6901C462.62 30.8301 463.79 31.0601 464.91 31.3701C467.7 32.0701 469.99 33.2901 471.77 35.0401C473.55 36.7901 474.86 39.0401 475.7 41.8001C476.05 43.0601 476.32 44.3901 476.51 45.7801C476.7 47.1801 476.8 48.5701 476.8 49.9701C476.8 51.4701 476.71 52.9401 476.54 54.3701C476.37 55.8001 476.09 57.1601 475.7 58.4601C474.86 61.2901 473.53 63.5701 471.72 65.3001C469.9 67.0301 467.56 68.2201 464.69 68.8901C463.57 69.1701 462.42 69.3701 461.23 69.4901C460.04 69.6101 458.84 69.6701 457.62 69.6701C456.54 69.6701 455.45 69.6001 454.37 69.4601C453.29 69.3201 452.22 69.1301 451.17 68.8901C448.34 68.2201 446.02 67.0301 444.2 65.3001C442.38 63.5701 441.05 61.2901 440.21 58.4601C439.86 57.2401 439.59 55.9101 439.4 54.4801C439.21 53.0501 439.11 51.6001 439.11 50.1301C439.11 48.6601 439.19 47.2101 439.37 45.7501C439.54 44.3001 439.82 42.9801 440.21 41.7901V41.7601H440.23ZM448.4 44.4301C448.16 45.3701 447.98 46.3301 447.87 47.2901C447.77 48.2501 447.72 49.2001 447.72 50.1501C447.72 51.1301 447.78 52.1001 447.9 53.0601C448.02 54.0201 448.19 54.9601 448.4 55.8601C448.78 57.4701 449.42 58.8601 450.31 60.0501C451.2 61.2401 452.45 62.1101 454.06 62.6701C454.65 62.8801 455.28 63.0401 455.94 63.1401C456.6 63.2501 457.27 63.3001 457.93 63.3001C458.59 63.3001 459.26 63.2501 459.92 63.1401C460.59 63.0401 461.21 62.8801 461.81 62.6701C463.41 62.1101 464.68 61.2401 465.58 60.0501C466.49 58.8601 467.12 57.4601 467.47 55.8601C467.68 54.9501 467.84 54.0201 467.97 53.0601C468.09 52.1001 468.15 51.1301 468.15 50.1501C468.15 49.2101 468.09 48.2601 467.97 47.2901C467.85 46.3301 467.68 45.4001 467.47 44.4801C467.12 42.8801 466.49 41.4701 465.58 40.2601C464.67 39.0501 463.41 38.1901 461.81 37.6701C461.21 37.4601 460.59 37.3001 459.92 37.2001C459.26 37.0901 458.59 37.0401 457.93 37.0401C457.26 37.0401 456.6 37.0901 455.94 37.2001C455.28 37.3001 454.65 37.4601 454.06 37.6701C452.45 38.2301 451.21 39.1001 450.34 40.2901C449.46 41.4701 448.82 42.8701 448.4 44.4801V44.4301Z" fill="#0A9A9A"/>
<path d="M492.11 31.27L507.52 58.31L507.15 31.27H515.22V68.9H506.05L489.86 40.45L490.23 68.91H482.11V31.27H492.11Z" fill="#0A9A9A"/>
<path d="M542.06 31.27L558.1 68.9H549.29L545.83 59.94H529.48L526.13 68.9H517.79L533.67 31.27H542.06ZM532.04 53.23H543.26L537.55 38.77L532.04 53.23Z" fill="#0A9A9A"/>
<path d="M568.97 68.35C566.89 67.98 564.98 66.87 563.23 65.02C561.73 63.45 560.79 61.68 560.4 59.73C560.01 57.77 559.82 55.77 559.82 53.7V31.27H567.73V51.92C567.7 55.41 568.08 58.09 568.88 59.94C569.68 61.8 572.16 62.72 576.32 62.72L585.65 62.67V68.91H575.64C573.27 68.9 571.04 68.72 568.97 68.35Z" fill="#0A9A9A"/>
<path d="M157.43 89.2C156.59 91.07 156.13 93.23 156.05 95.7C156.05 96.12 156.05 96.55 156.05 96.98C156.05 97.41 156.06 97.86 156.09 98.3C156.17 99.22 156.34 100.12 156.6 101C156.86 101.88 157.3 102.66 157.9 103.35C158.53 104.06 159.26 104.5 160.09 104.67C160.92 104.84 161.77 104.93 162.63 104.93C162.68 104.93 162.74 104.93 162.81 104.93C162.88 104.93 162.93 104.93 162.99 104.93L172.77 104.89V109.82H162.72C161.12 109.82 159.57 109.68 158.09 109.39C156.6 109.1 155.21 108.43 153.89 107.38C152.31 106.09 151.21 104.52 150.58 102.67C149.95 100.82 149.61 98.92 149.56 96.97C149.53 96.55 149.53 96.14 149.54 95.75C149.55 95.36 149.57 94.96 149.6 94.57C149.89 90.1 151.1 86.82 153.25 84.71C155.39 82.61 158.6 81.56 162.89 81.56L172.78 81.52V86.37H163C160.12 86.39 158.27 87.33 157.43 89.2Z" fill="#2DABE3"/>
<path d="M183.35 109.4C181.79 109.12 180.35 108.29 179.03 106.9C177.9 105.72 177.19 104.39 176.9 102.92C176.61 101.45 176.47 99.94 176.47 98.39V81.51H182.42V97.04C182.39 99.67 182.68 101.68 183.29 103.07C183.89 104.46 185.76 105.16 188.89 105.16L195.91 105.12V109.81H188.38C186.59 109.81 184.91 109.68 183.35 109.4Z" fill="#2DABE3"/>
<path d="M199.1 109.81V81.51H205.33V109.81H199.1Z" fill="#2DABE3"/>
<path d="M218.73 81.51L230.32 101.85L230.04 81.51H236.11V109.81H229.21L217.03 88.4L217.31 109.81H211.2V81.51H218.73Z" fill="#2DABE3"/>
<path d="M241.91 109.81V81.51H248.14V109.81H241.91Z" fill="#2DABE3"/>
<path d="M260.12 89.2C259.28 91.07 258.82 93.23 258.74 95.7C258.74 96.12 258.74 96.55 258.74 96.98C258.74 97.41 258.75 97.86 258.78 98.3C258.86 99.22 259.03 100.12 259.29 101C259.55 101.88 259.99 102.66 260.59 103.35C261.22 104.06 261.95 104.5 262.78 104.67C263.61 104.84 264.46 104.93 265.32 104.93C265.37 104.93 265.43 104.93 265.5 104.93C265.57 104.93 265.62 104.93 265.68 104.93L275.46 104.89V109.82H265.41C263.81 109.82 262.26 109.68 260.78 109.39C259.29 109.1 257.9 108.43 256.58 107.38C255 106.09 253.9 104.52 253.27 102.67C252.64 100.82 252.3 98.92 252.25 96.97C252.22 96.55 252.22 96.14 252.23 95.75C252.24 95.36 252.26 94.96 252.29 94.57C252.58 90.1 253.79 86.82 255.94 84.71C258.08 82.61 261.29 81.56 265.58 81.56L275.47 81.52V86.37H265.69C262.82 86.39 260.96 87.33 260.12 89.2Z" fill="#2DABE3"/>
<path d="M289.06 86.56C287.77 86.59 286.69 86.86 285.81 87.37C284.93 87.88 284.49 88.86 284.49 90.31C284.49 91.41 284.86 92.2 285.61 92.68C286.36 93.15 287.23 93.39 288.23 93.39L296.11 93.35C296.4 93.38 296.7 93.39 297.02 93.39C297.34 93.39 297.65 93.4 297.97 93.43C298.89 93.48 299.8 93.63 300.69 93.88C301.58 94.13 302.37 94.58 303.06 95.24C303.69 95.82 304.16 96.52 304.48 97.33C304.8 98.14 304.99 98.99 305.07 99.85C305.1 100.11 305.12 100.37 305.13 100.62C305.14 100.87 305.15 101.13 305.15 101.39C305.1 104.68 304.19 106.9 302.43 108.07C300.67 109.24 298.28 109.82 295.26 109.82H279.41V104.77H294.31C295.62 104.8 296.76 104.59 297.72 104.14C298.68 103.69 299.07 102.68 298.88 101.1C298.75 99.86 298.29 99.1 297.5 98.81C296.71 98.52 295.78 98.36 294.7 98.34L287.68 98.3C284.76 98.33 282.46 97.74 280.76 96.55C279.06 95.35 278.23 93.19 278.26 90.07C278.31 86.78 279.23 84.54 281 83.35C282.77 82.15 285.17 81.56 288.19 81.56L303.76 81.52V86.56H289.06Z" fill="#2DABE3"/>
<path d="M10.6799 69.8301C10.6799 50.1901 22.5399 33.1801 39.6999 25.1601C41.1899 25.0101 42.6999 24.9401 44.2399 24.9401C48.2899 24.9401 52.2299 25.4701 55.9699 26.4401C33.8299 29.2801 16.6899 47.6501 16.6899 69.8401C16.6899 90.0601 30.9299 107.12 50.2199 112.13C48.2599 112.38 46.2699 112.52 44.2399 112.52C40.7199 112.52 37.2899 112.11 33.9999 111.38C19.9699 102.5 10.6799 87.2001 10.6799 69.8301Z" fill="url(#paint0_linear_1_130)"/>
<path d="M74.5599 127.17C103.47 124.28 126.11 99.82 126.11 70.17C126.11 43.04 107.15 20.27 81.7799 14.38C75.7099 10.42 68.9499 7.45004 61.7199 5.69004C64.0499 5.44004 66.4199 5.29004 68.8099 5.29004C104.59 5.29004 133.69 34.39 133.69 70.17C133.69 105.95 104.59 135.05 68.8099 135.05C63.5299 135.05 58.4199 134.4 53.4999 133.21C60.9699 132.39 68.0699 130.31 74.5599 127.17Z" fill="url(#paint1_linear_1_130)"/>
<path d="M92.9899 51.31C97.3299 45.86 99.9199 29.42 81.7799 14.38C81.7799 14.38 111.11 29.15 111.63 68.33C112.17 110.22 63.4899 132.45 53.5299 133.2C53.5299 133.2 130.83 88.97 52.8699 52.94C45.9099 49.71 83.4499 63.29 92.9899 51.31Z" fill="url(#paint2_linear_1_130)"/>
<path d="M53.5099 133.2C53.5099 133.2 130.84 88.96 52.8799 52.93C45.9199 49.71 83.4599 63.29 92.9999 51.31C93.7199 50.4 94.3899 49.19 94.9399 47.73C98.5999 55.66 101.16 65.28 101.32 76.79C101.54 92.8 94.8399 106.25 85.4699 117.04C72.3999 127.37 58.3499 132.84 53.5099 133.2Z" fill="url(#paint3_linear_1_130)"/>
<path d="M92.5599 41.04C92.5899 47.33 87.5199 52.45 81.2299 52.47C74.9499 52.5 69.8299 47.42 69.7999 41.13C69.7699 34.85 74.8499 29.73 81.1299 29.7C87.4199 29.68 92.5299 34.76 92.5599 41.04Z" fill="url(#paint4_linear_1_130)"/>
<path d="M72.7 36.09C72.69 39.32 75.29 41.96 78.53 41.97C81.76 41.98 84.39 39.37 84.41 36.14C84.42 32.91 81.82 30.27 78.58 30.26C75.34 30.25 72.71 32.86 72.7 36.09Z" fill="url(#paint5_linear_1_130)"/>
<defs>
<linearGradient id="paint0_linear_1_130" x1="55.9579" y1="68.7209" x2="10.6797" y2="68.7209" gradientUnits="userSpaceOnUse">
<stop stop-color="#FBBA3B"/>
<stop offset="1" stop-color="#D96D2D"/>
</linearGradient>
<linearGradient id="paint1_linear_1_130" x1="123.77" y1="0.173639" x2="67.6825" y2="99.7022" gradientUnits="userSpaceOnUse">
<stop stop-color="#05AB9E"/>
<stop offset="0.4233" stop-color="#05AB9E"/>
<stop offset="1" stop-color="#1394D3"/>
</linearGradient>
<linearGradient id="paint2_linear_1_130" x1="105.679" y1="56.6257" x2="80.4701" y2="68.5988" gradientUnits="userSpaceOnUse">
<stop stop-color="#1FA0DB"/>
<stop offset="1" stop-color="#0555A0"/>
</linearGradient>
<linearGradient id="paint3_linear_1_130" x1="101.384" y1="90.3486" x2="52.1972" y2="90.562" gradientUnits="userSpaceOnUse">
<stop stop-color="#1FA0DB"/>
<stop offset="1" stop-color="#0555A0"/>
</linearGradient>
<linearGradient id="paint4_linear_1_130" x1="92.5717" y1="41.0453" x2="69.8124" y2="41.1441" gradientUnits="userSpaceOnUse">
<stop stop-color="#1FA0DB"/>
<stop offset="1" stop-color="#0555A0"/>
</linearGradient>
<linearGradient id="paint5_linear_1_130" x1="72.6423" y1="36.0946" x2="84.3478" y2="36.1454" gradientUnits="userSpaceOnUse">
<stop stop-color="#1FA0DB"/>
<stop offset="1" stop-color="#0555A0"/>
</linearGradient>
</defs>
</svg>
