<svg width="200" height="200" viewBox="0 0 200 200" fill="none" xmlns="http://www.w3.org/2000/svg">
<g clip-path="url(#clip0_192_7380)">
<path d="M100 200C155.228 200 200 155.228 200 100C200 44.7715 155.228 0 100 0C44.7715 0 0 44.7715 0 100C0 155.228 44.7715 200 100 200Z" fill="#26BEBE"/>
<path d="M119.523 198.089C159.09 190.259 190.259 159.089 198.09 119.522L147.141 68.5731L137.933 71.2668L111.112 44.4446L51.9731 100.232L44.4449 111.111L72.0703 138.737L68.5735 147.141L119.523 198.089Z" fill="#00A49A"/>
<path d="M155.556 111.111V88.8887H143.045C141.996 84.8114 140.374 80.9661 138.285 77.4293L147.142 68.5727L131.428 52.859L122.571 61.7157C119.036 59.6262 115.19 58.0047 111.112 56.9555V44.4446H88.8898V56.9555C84.8125 58.0047 80.9672 59.627 77.4304 61.7157L68.5738 52.859L52.8601 68.5723L61.7168 77.429C59.6273 80.9649 58.0058 84.8106 56.9566 88.8883H44.4457V111.111H56.9566C58.0058 115.188 59.6281 119.033 61.7168 122.57L52.8601 131.427L68.5734 147.14L77.4301 138.284C80.966 140.373 84.8117 141.995 88.8894 143.044V155.556H111.112V143.045C115.189 141.995 119.034 140.374 122.571 138.284L131.428 147.141L147.141 131.428L138.284 122.571C140.374 119.035 141.995 115.19 143.045 111.112H155.557V111.111H155.556ZM100.001 122.222C87.7281 122.222 77.7785 112.273 77.7785 100C77.7785 87.7274 87.7281 77.7778 100.001 77.7778C112.273 77.7778 122.223 87.7274 122.223 100C122.223 112.273 112.273 122.222 100.001 122.222Z" fill="#324A5E"/>
<path d="M155.556 111.111V88.8887H143.045C141.996 84.8114 140.374 80.9661 138.285 77.4293L147.142 68.5727L131.428 52.859L122.572 61.7157C119.036 59.6262 115.19 58.0047 111.112 56.9555V44.4446H100.001V77.7778C112.274 77.7778 122.223 87.7274 122.223 100C122.223 112.273 112.274 122.222 100.001 122.222V155.556H111.112V143.045C115.19 141.995 119.035 140.374 122.572 138.284L131.428 147.141L147.141 131.428L138.285 122.571C140.374 119.035 141.996 115.19 143.045 111.112H155.557V111.111H155.556Z" fill="#2B3B4E"/>
<path d="M100.001 135.69C80.3207 135.69 64.3105 119.68 64.3105 100C64.3105 80.32 80.3207 64.3098 100.001 64.3098C119.681 64.3098 135.691 80.32 135.691 100C135.691 119.68 119.68 135.69 100.001 135.69ZM100.001 69.0235C82.9207 69.0235 69.0242 82.92 69.0242 100C69.0242 117.08 82.9207 130.977 100.001 130.977C117.081 130.977 130.977 117.08 130.977 100C130.977 82.92 117.081 69.0235 100.001 69.0235Z" fill="#B5F1F4"/>
<path d="M135.691 100C135.691 80.3208 119.681 64.3098 100.001 64.3098V69.0235C117.081 69.0235 130.977 82.92 130.977 100C130.977 117.08 117.081 130.977 100.001 130.977V135.69C119.68 135.69 135.691 119.68 135.691 100Z" fill="#84DBFF"/>
<path d="M100 131.405C117.344 131.405 131.405 117.344 131.405 100C131.405 82.6557 117.344 68.5953 100 68.5953C82.6557 68.5953 68.5953 82.6557 68.5953 100C68.5953 117.344 82.6557 131.405 100 131.405Z" fill="white"/>
<path d="M131.405 100C131.405 82.6559 117.345 68.5953 100.001 68.5953V131.406C117.345 131.405 131.405 117.344 131.405 100Z" fill="#E9EFF4"/>
<path d="M117.421 115.823H82.5789V109.918C82.5789 105.721 85.2652 101.994 89.2468 100.667L95.6449 98.5339H104.355L110.753 100.667C114.735 101.994 117.421 105.721 117.421 109.918V115.823Z" fill="white"/>
<path d="M117.421 109.918C117.421 105.721 114.735 101.994 110.753 100.667L104.355 98.5339H99.7758V115.823H117.421V109.918H117.421Z" fill="#B8C9D9"/>
<path d="M104.355 98.5339L100.001 102.889L95.6453 98.5339V94.1785H104.355V98.5339Z" fill="#FED8B2"/>
<path d="M99.7758 94.1785V102.665L100.001 102.889L104.355 98.5339V94.1785H99.7758Z" fill="#EFC095"/>
<path d="M91.2894 85.468C91.2894 80.6571 95.189 76.7574 100 76.7574C104.811 76.7574 108.711 80.6571 108.711 85.468C108.711 90.2789 104.811 98.534 100 98.534C95.189 98.534 91.2894 90.2789 91.2894 85.468Z" fill="#F4E3C3"/>
<path d="M100.001 76.7574C99.9254 76.7574 99.852 76.7668 99.7766 76.7688V98.5215C99.8512 98.5254 99.9254 98.5336 100.001 98.5336C104.812 98.5336 108.711 90.2785 108.711 85.4676C108.711 80.6574 104.811 76.7574 100.001 76.7574Z" fill="#FED8B2"/>
<path d="M108.711 85.468C108.711 80.6571 104.811 76.7574 100 76.7574C95.1894 76.7574 91.2898 80.6571 91.2898 85.468C91.2898 87.3879 91.9121 89.8551 92.9644 92.1285C92.7179 90.8199 92.7839 89.4821 92.9132 88.4727C98.4425 88.0391 103.778 85.4524 103.778 85.4524C103.778 85.4524 104.453 86.6934 106.986 87.7977C107.166 88.8281 107.343 90.5035 107.035 92.1332C108.087 89.8586 108.711 87.3891 108.711 85.468Z" fill="#444444"/>
<path d="M108.711 85.468C108.711 80.6571 104.811 76.7574 100 76.7574C99.925 76.7574 99.8515 76.7668 99.7761 76.7688V87.0145C102.155 86.2367 103.777 85.4524 103.777 85.4524C103.777 85.4524 104.453 86.6934 106.985 87.7977C107.165 88.8281 107.343 90.5035 107.034 92.1332C108.087 89.8586 108.711 87.3887 108.711 85.468Z" fill="#272525"/>
<path d="M98.1692 115.671L99.3899 104.339H100.611L101.832 115.671H98.1692Z" fill="#F9B54C"/>
<path d="M100.611 104.339H99.7758V115.671H101.832L100.611 104.339Z" fill="#F4A200"/>
<path d="M93.6523 99.198L89.2468 100.667C85.2652 101.994 82.5789 105.721 82.5789 109.918V115.823H99.7753V115.089L93.6523 99.198Z" fill="#324A5E"/>
<path d="M117.421 109.918C117.421 105.721 114.735 101.994 110.753 100.667L106.348 99.198L100 115.671L99.7758 115.089V115.823H117.421V109.918H117.421Z" fill="#2B3B4E"/>
<path d="M106.348 99.198L107.555 104.339L105.265 105.484L107.555 108.116L100 115.671L106.348 99.198Z" fill="#1F2D3A"/>
<path d="M93.6523 99.198L92.4457 104.339L94.7347 105.484L92.4457 108.116L100 115.671L93.6523 99.198Z" fill="#2B3B4E"/>
<path d="M102.404 102.909L100.801 106.686H99.1988L97.5964 102.909H102.404Z" fill="#F4A200"/>
<path d="M102.404 102.909H99.7758V106.686H100.801L102.404 102.909Z" fill="#CC8200"/>
<path d="M103.778 104.339L106.348 99.198L104.355 98.5339L100.001 102.889L103.778 104.339Z" fill="#CFDBE6"/>
<path d="M96.223 104.339L93.6523 99.198L95.6453 98.5339L100 102.889L96.223 104.339Z" fill="#E9EFF4"/>
<path d="M26.0708 70.088L25.3115 72.0605C24.6992 71.9587 24.1222 71.971 23.5804 72.0973C23.0407 72.2183 22.5454 72.4295 22.0945 72.7308C21.6404 73.0248 21.2432 73.3924 20.9029 73.8337C20.5625 74.275 20.2882 74.7661 20.08 75.3069C19.7004 76.2932 19.6057 77.2826 19.7959 78.2751C19.9881 79.2624 20.4786 80.1787 21.2673 81.0242C22.058 81.8644 23.1586 82.5559 24.5691 83.0989C25.9796 83.6418 27.2598 83.8668 28.4098 83.7737C29.5618 83.6753 30.5401 83.3244 31.3447 82.7208C32.1514 82.112 32.7446 81.3145 33.1242 80.3282C33.3324 79.7874 33.4582 79.2392 33.5016 78.6836C33.545 78.128 33.4995 77.5899 33.365 77.0693C33.2273 76.5414 32.9988 76.0517 32.6795 75.6C32.357 75.141 31.9371 74.745 31.42 74.4119L32.1793 72.4394C32.9546 72.9083 33.5955 73.4656 34.102 74.111C34.6085 74.7565 34.9801 75.4597 35.2169 76.2206C35.4484 76.9794 35.5436 77.7679 35.5026 78.5862C35.4636 79.3992 35.2859 80.2167 34.9695 81.0386C34.4347 82.4278 33.6197 83.5327 32.5246 84.3531C31.4295 85.1736 30.1368 85.6531 28.6466 85.7918C27.1564 85.9305 25.5523 85.6691 23.8343 85.0078C22.1163 84.3464 20.751 83.4647 19.7384 82.3626C18.7258 81.2605 18.0884 80.0379 17.8261 78.6949C17.5637 77.352 17.7 75.9858 18.2348 74.5966C18.5512 73.7747 18.9675 73.0491 19.4837 72.4198C20.0019 71.7852 20.604 71.2651 21.2898 70.8594C21.9704 70.4517 22.7149 70.1782 23.5235 70.0389C24.3267 69.8976 25.1758 69.9139 26.0708 70.088Z" fill="white"/>
<path d="M41.6085 67.4159L27.8519 56.6727L29.1529 55.0068L41.4317 64.596L46.4256 58.2014L47.9034 59.3554L41.6085 67.4159Z" fill="white"/>
<path d="M44.4535 38.9743L55.559 52.4402L53.9284 53.785L42.8229 40.3192L44.4535 38.9743Z" fill="white"/>
<path d="M68.0764 25.1392L75.4524 40.9586L73.5985 41.823L59.1868 33.4216L59.0323 33.4936L64.8237 45.9144L62.9081 46.8076L55.532 30.9881L57.3859 30.1237L71.8429 38.5416L71.9974 38.4696L66.1916 26.0179L68.0764 25.1392Z" fill="white"/>
<path d="M83.5904 21.1285L86.7661 38.2917L84.6877 38.6762L81.512 21.513L83.5904 21.1285Z" fill="white"/>
<path d="M106.152 24.4712C106.093 23.6035 105.711 22.9135 105.008 22.401C104.305 21.8885 103.426 21.6062 102.371 21.5542C101.599 21.5161 100.917 21.6077 100.326 21.8288C99.7408 22.0503 99.2756 22.3715 98.9306 22.7925C98.5913 23.2138 98.4079 23.7025 98.3805 24.2587C98.3575 24.724 98.4485 25.1296 98.6533 25.4753C98.864 25.8156 99.1399 26.1051 99.4808 26.3438C99.822 26.5768 100.182 26.7737 100.561 26.9346C100.94 27.0899 101.289 27.218 101.609 27.3191L103.356 27.8831C103.804 28.0246 104.301 28.2141 104.847 28.4515C105.398 28.6891 105.92 29.0022 106.413 29.3905C106.912 29.7735 107.315 30.2542 107.622 30.8325C107.929 31.4108 108.062 32.1086 108.022 32.9258C107.976 33.8678 107.687 34.7069 107.156 35.443C106.63 36.1794 105.885 36.7485 104.921 37.1504C103.963 37.5525 102.814 37.7206 101.475 37.6546C100.226 37.593 99.155 37.3383 98.2612 36.8903C97.3731 36.4426 96.6857 35.8455 96.1992 35.0991C95.7183 34.3529 95.4673 33.5014 95.4462 32.5447L97.6253 32.6521C97.6496 33.3132 97.8441 33.8689 98.2087 34.3192C98.5793 34.7642 99.0574 35.1063 99.6429 35.3457C100.234 35.5796 100.876 35.7136 101.569 35.7478C102.374 35.7875 103.104 35.6927 103.759 35.4632C104.413 35.2281 104.939 34.8843 105.337 34.4317C105.735 33.9735 105.95 33.4266 105.981 32.791C106.009 32.2122 105.871 31.7332 105.565 31.354C105.26 30.9749 104.849 30.6588 104.332 30.4058C103.816 30.1528 103.255 29.926 102.651 29.7256L100.536 29.0069C99.193 28.5482 98.1423 27.9361 97.3836 27.1705C96.6249 26.405 96.2745 25.4348 96.3324 24.2601C96.3806 23.284 96.6864 22.4458 97.25 21.7454C97.8195 21.0397 98.5625 20.5074 99.479 20.1487C100.402 19.7846 101.419 19.6299 102.531 19.6848C103.655 19.7402 104.644 19.9909 105.498 20.4369C106.352 20.8772 107.018 21.4561 107.494 22.1737C107.976 22.8915 108.21 23.6909 108.195 24.5719L106.152 24.4712Z" fill="white"/>
<path d="M120.42 24.3315L121.054 22.5669L133.374 26.9919L132.74 28.7565L127.575 26.9013L122.309 41.5638L120.319 40.8493L125.586 26.1868L120.42 24.3315Z" fill="white"/>
<path d="M135.189 47.6944L133.422 46.3579L149.061 36.3007L150.801 37.6166L145.386 55.4047L143.619 54.0682L148.32 39.2024L148.211 39.1202L135.189 47.6944ZM139.954 42.7493L147.078 48.1363L145.948 49.6319L138.823 44.2449L139.954 42.7493Z" fill="white"/>
<path d="M150.641 61.1267L164.767 50.8741L170.915 59.3441L169.398 60.4455L164.491 53.686L159.718 57.1503L164.164 63.2752L162.646 64.3766L158.201 58.2516L151.883 62.8373L150.641 61.1267Z" fill="white"/>
<path d="M160.952 77.3657L177.371 71.4405L180.923 81.2849L179.16 81.9214L176.324 74.0651L170.777 76.0672L173.346 83.1859L171.582 83.8224L169.013 76.7037L161.67 79.3538L160.952 77.3657Z" fill="white"/>
</g>
<path d="M37.1076 134.608L36.1332 132.732C36.6359 132.385 37.0273 131.984 37.3074 131.528C37.5901 131.077 37.7733 130.595 37.857 130.08C37.9486 129.568 37.9445 129.045 37.8449 128.509C37.7453 127.973 37.562 127.448 37.2948 126.934C36.8076 125.996 36.1201 125.25 35.2323 124.696C34.3472 124.147 33.3089 123.85 32.1175 123.805C30.9287 123.764 29.6378 124.038 28.2448 124.624C26.8519 125.211 25.7915 125.927 25.0637 126.775C24.3386 127.627 23.9263 128.535 23.827 129.498C23.7303 130.467 23.9255 131.42 24.4127 132.358C24.6799 132.872 25.0099 133.335 25.4028 133.748C25.7956 134.16 26.2369 134.499 26.7266 134.766C27.2241 135.036 27.7557 135.218 28.3213 135.312C28.8948 135.408 29.4879 135.395 30.1006 135.272L31.075 137.148C30.1795 137.353 29.3102 137.405 28.467 137.306C27.6239 137.206 26.8304 136.975 26.0867 136.612C25.3482 136.247 24.6817 135.769 24.0872 135.177C23.4953 134.591 22.9964 133.907 22.5904 133.125C21.9041 131.804 21.6289 130.488 21.7649 129.177C21.9008 127.867 22.4334 126.656 23.3628 125.546C24.2922 124.436 25.6052 123.523 27.3019 122.809C28.9985 122.095 30.618 121.772 32.1603 121.842C33.7026 121.911 35.0761 122.319 36.2807 123.066C37.4854 123.812 38.4308 124.846 39.1171 126.167C39.5231 126.948 39.7864 127.732 39.907 128.516C40.0302 129.306 40.0081 130.075 39.8406 130.821C39.6784 131.565 39.3696 132.261 38.9141 132.907C38.4638 133.551 37.8616 134.118 37.1076 134.608Z" fill="white"/>
<path d="M51.624 156.07C50.3109 157.36 48.9197 158.264 47.4504 158.781C45.9811 159.298 44.54 159.442 43.1271 159.214C41.7141 158.987 40.4335 158.399 39.285 157.452C38.1366 156.505 37.3746 155.408 36.9992 154.16C36.6237 152.913 36.6578 151.608 37.1014 150.245C37.545 148.882 38.4233 147.556 39.7364 146.266C41.0494 144.975 42.4406 144.072 43.9099 143.555C45.3792 143.038 46.8203 142.894 48.2333 143.121C49.6462 143.349 50.9269 143.937 52.0753 144.884C53.2238 145.831 53.9857 146.928 54.3612 148.175C54.7366 149.423 54.7025 150.728 54.259 152.09C53.8154 153.453 52.937 154.78 51.624 156.07ZM50.046 154.769C51.124 153.709 51.8388 152.654 52.1903 151.604C52.5462 150.557 52.5837 149.573 52.3028 148.653C52.0262 147.737 51.4803 146.942 50.665 146.27C49.8497 145.597 48.9206 145.175 47.8778 145.004C46.8393 144.836 45.7542 144.955 44.6225 145.362C43.4951 145.773 42.3924 146.508 41.3144 147.567C40.2364 148.626 39.5194 149.679 39.1635 150.726C38.812 151.777 38.7745 152.76 39.051 153.677C39.3319 154.597 39.8801 155.394 40.6954 156.066C41.5107 156.738 42.4375 157.159 43.476 157.327C44.5188 157.498 45.6039 157.379 46.7313 156.968C47.8631 156.561 48.968 155.828 50.046 154.769Z" fill="white"/>
<path d="M79.4979 160.876L73.0851 177.11L71.1371 176.486L67.1136 160.84L66.9512 160.788L61.9162 173.534L59.9032 172.89L66.316 156.656L68.264 157.279L72.3075 172.968L72.4698 173.019L77.5173 160.242L79.4979 160.876Z" fill="white"/>
<path d="M105.482 163.684L106.612 181.102L104.569 181.209L94.1841 168.033L94.0139 168.042L94.901 181.717L92.7903 181.828L91.6604 164.41L93.703 164.303L104.125 177.512L104.295 177.503L103.406 163.793L105.482 163.684Z" fill="white"/>
<path d="M126.787 177.477L118.947 161.882L128.703 157.907L129.545 159.583L121.747 162.76L124.396 168.029L131.689 165.058L132.531 166.733L125.238 169.704L127.902 175.004L135.827 171.776L136.669 173.451L126.787 177.477Z" fill="white"/>
<path d="M153.023 147.796L151.449 149.207C150.905 148.883 150.346 148.671 149.772 148.571C149.202 148.467 148.636 148.458 148.074 148.544C147.512 148.623 146.974 148.787 146.458 149.037C145.942 149.287 145.469 149.605 145.037 149.992C144.25 150.698 143.735 151.516 143.493 152.447C143.254 153.374 143.333 154.355 143.728 155.39C144.127 156.421 144.887 157.443 146.008 158.456C147.129 159.47 148.261 160.158 149.405 160.522C150.553 160.882 151.642 160.956 152.673 160.745C153.708 160.531 154.619 160.071 155.406 159.365C155.837 158.978 156.193 158.553 156.473 158.09C156.752 157.627 156.939 157.144 157.033 156.643C157.127 156.134 157.117 155.622 157.004 155.109C156.892 154.588 156.658 154.084 156.304 153.596L157.878 152.185C158.422 152.89 158.798 153.619 159.008 154.372C159.217 155.125 159.273 155.876 159.174 156.624C159.071 157.369 158.825 158.087 158.435 158.778C158.049 159.466 157.528 160.103 156.873 160.691C155.764 161.685 154.509 162.325 153.106 162.611C151.704 162.897 150.258 162.812 148.768 162.357C147.278 161.901 145.85 161.056 144.485 159.822C143.119 158.587 142.187 157.299 141.687 155.956C141.187 154.613 141.099 153.31 141.422 152.049C141.746 150.788 142.462 149.66 143.57 148.666C144.226 148.078 144.936 147.612 145.701 147.268C146.471 146.92 147.271 146.703 148.103 146.617C148.931 146.528 149.763 146.579 150.599 146.77C151.43 146.958 152.238 147.3 153.023 147.796Z" fill="white"/>
<path d="M157.397 137.992L155.657 137.291L161.485 125.569L163.224 126.269L160.781 131.184L175.232 137.006L174.291 138.899L159.84 133.077L157.397 137.992Z" fill="white"/>
<defs>
<clipPath id="clip0_192_7380">
<rect width="200" height="200" fill="white"/>
</clipPath>
</defs>
</svg>
